<svg width="210" height="38" viewBox="0 0 210 38" fill="none" xmlns="http://www.w3.org/2000/svg">
<path d="M175.682 0.540516C178.546 0.3854 181.378 1.23328 183.722 2.94835C184.677 3.65873 185.45 4.43788 186.338 5.22166C186.588 5.06729 186.879 4.84378 187.082 4.63317C190.874 0.726662 196.641 -0.462962 201.625 1.44379C207.241 3.59239 209.851 8.54492 209.87 14.5798L209.867 28.3296C209.87 30.5186 210.063 33.2837 209.831 35.4193C209.797 35.7366 209.692 36.0569 209.469 36.2855C208.799 36.9686 206.509 36.824 205.552 36.8156C205.052 36.8111 204.01 36.7896 203.714 36.3027C202.67 34.5902 204.088 16.2622 202.998 12.1585C202.707 11.0652 202.031 10.0225 201.27 9.22158C200.101 7.99198 198.305 7.11993 196.629 7.11235C194.834 7.10433 192.869 7.93436 191.599 9.25357C189.045 11.9096 189.384 16.0078 189.441 19.4559C189.468 21.1686 189.478 22.8818 189.471 24.5948C189.473 28.0613 189.591 32.4712 189.269 35.9311C189.24 36.1756 189.005 36.5079 188.798 36.5818C187.923 36.8941 183.839 37.071 183.309 36.3873C182.617 35.4957 182.897 31.967 182.908 30.6634L182.918 20.8355C182.917 18.3736 182.955 16.1499 182.697 13.6542C181.883 5.5802 171.428 4.87717 169.456 12.6319C168.71 15.5672 168.989 19.2342 168.993 22.2965L168.981 31.6502C168.98 32.737 169.095 34.9084 168.867 35.8259C168.486 37.3546 163.725 36.8519 162.646 36.4933C162.555 35.9715 162.502 35.4434 162.487 34.9133C162.341 30.8302 162.541 26.2654 162.472 22.1266C162.649 18.9831 162.152 15.3996 162.697 12.3083C163.922 5.37362 169.051 0.800068 175.682 0.540516Z" fill="#151519"/>
<path d="M5.93835 36.6628C4.714 36.8073 1.56528 37.1243 0.573867 36.4765C0.236218 36.097 0.0975983 35.0192 0.0974039 34.5176C0.0960753 31.0509 -0.0154226 28.1192 0.055939 24.0204C0.146327 18.8289 -0.0661007 14.839 1.00584 10.5492C2.52173 4.4827 7.33243 0.736601 13.318 0.540163C18.1668 0.381027 21.5758 1.96797 25.1043 5.25517C25.6087 4.78298 26.1044 4.29325 26.6277 3.83688C33.916 -2.40894 45.8055 0.416346 48.3697 10.2606C49.2773 13.7446 49.0866 15.3962 49.0849 18.9451C49.0963 22.1557 49.08 25.3664 49.0358 28.5767C48.9995 30.8196 49.0589 33.1187 48.9565 35.3456C48.9371 35.7683 48.7138 36.1889 48.5145 36.5594C47.2445 36.862 44.7435 36.8913 43.455 36.6611C42.919 36.5654 42.7174 36.0875 42.6972 35.5701C42.6326 33.9139 42.6556 32.1739 42.657 30.5138L42.7026 19.7022C42.702 16.7277 42.9045 13.1531 41.2873 10.5492C40.2674 8.88931 38.6416 7.72402 36.7781 7.31723C34.9568 6.91624 33.0556 7.28224 31.497 8.33408C28.8432 10.0913 28.069 12.7815 28.0056 15.8935C27.9577 18.238 27.9616 20.5831 27.9541 22.9275C27.9537 25.7997 27.9388 28.6719 27.9091 31.544C27.9064 32.4536 28.2093 36.2101 27.2869 36.4894C26.0201 36.8729 23.2245 37.0411 21.9995 36.5499C21.2225 36.2383 21.4886 32.4366 21.484 31.6226L21.4494 21.2464C21.4498 17.8235 21.809 13.5868 20.0509 10.589C19.1127 8.98114 17.5868 7.83067 15.8171 7.39692C14.0702 6.95826 11.8732 7.17001 10.3294 8.16468C8.63265 9.25787 7.33697 11.3283 6.94921 13.3401C6.84509 13.88 6.77445 14.4131 6.64938 14.9484C6.02411 15.957 6.28495 35.1598 6.28495 35.1598C6.28495 35.1598 6.31856 35.7799 6.28495 36.0531C6.24008 36.4179 6.0536 36.4848 5.93835 36.6628Z" fill="#151519"/>
<path d="M90.9531 22.869C91.259 23.6946 91.6525 24.4889 92.1308 25.2352C93.6715 27.6385 95.988 29.3935 98.6631 30.1845C101.338 30.9753 104.198 30.7514 106.728 29.5516C109.026 28.4617 110.033 27.692 110.95 26.0565C111.134 25.7293 111.433 25.4793 111.795 25.3817L117.243 23.914C118.312 23.6262 119.26 24.7204 118.798 25.7265C117.294 28.9951 115.186 32.4123 109.231 35.2362C105.398 37.054 101.066 37.3945 97.0127 36.1962C93.402 35.1286 90.224 32.901 87.9228 29.8534C89.1612 28.0683 90.4758 25.0482 90.9531 22.869ZM101.175 0.143444C105.386 -0.0274411 109.518 1.36513 112.829 4.07118C115.513 6.26513 117.512 9.20738 118.614 12.5272C118.631 12.5596 118.645 12.5939 118.658 12.6288C119.326 14.3976 119.441 16.9012 118.234 17.6356C116.384 18.7613 107.398 20.9301 107.364 20.9384L104.842 21.578C103.88 21.8216 103.006 20.951 103.244 19.9882L104.186 16.1952C104.301 15.7312 104.659 15.3666 105.121 15.2431L112.419 13.2899C111.652 11.6211 110.522 10.1429 109.103 8.98231C106.917 7.19625 104.19 6.27676 101.41 6.38954C98.6306 6.50235 95.9806 7.63984 93.9365 9.59755C91.8926 11.5552 90.5877 14.2052 90.2568 17.0712C90.1528 17.9728 90.1471 18.8773 90.2363 19.7684C90.0642 21.5765 89.2013 25.4787 87.0517 28.5946C84.7639 24.9736 83.7799 20.6299 84.2764 16.328C84.7777 11.9855 86.7544 7.97001 89.8515 5.0038C92.9487 2.03759 96.9634 0.314357 101.175 0.143444Z" fill="url(#paint0_linear_1065_14917)"/>
<path d="M59.7049 6.43612C66.8849 -0.743757 78.3144 -0.955353 85.2333 5.96346C85.6166 6.34684 85.9767 6.74529 86.3163 7.15487C85.0602 8.96842 83.7734 12.029 83.3241 14.1969C82.7687 12.8038 81.9335 11.5036 80.8133 10.3834C76.2469 5.81697 68.7035 5.95718 63.9647 10.6959C59.226 15.4346 59.0858 22.9781 63.6522 27.5445C68.2186 32.1109 75.7621 31.9708 80.5008 27.232C83.2802 24.4527 84.4747 20.709 84.0682 17.1666C84.191 15.5094 84.9965 11.5103 87.2147 8.33651C92.0262 15.2869 91.1698 25.0825 84.7606 31.4918C77.5807 38.6717 66.1511 38.8833 59.2323 31.9644C52.3135 25.0456 52.525 13.616 59.7049 6.43612Z" fill="url(#paint1_linear_1065_14917)"/>
<path d="M126.104 1.3843L130.694 1.38341C130.694 1.38341 131.563 1.30852 131.563 2.19262C131.563 4.84493 131.681 11.0699 131.563 15.3898C131.563 21.2011 131.563 25.043 134.602 28.0406C138.51 31.8948 144.397 31.8917 148.48 28.0406C150.971 25.6909 150.883 19.7838 150.971 15.3898C151.052 11.4283 150.941 7.36858 150.963 3.39589C150.971 2.1002 150.877 1.34935 152.404 1.30878C153.272 1.30845 155.443 1.30831 155.877 1.30869C156.577 1.30929 157.315 1.18594 157.336 2.19279C157.373 3.99397 157.336 7.54678 157.336 8.56889L157.365 17.4464C157.376 21.2826 157.478 25.0846 155.659 28.621C149.115 41.3415 130.755 40.5417 125.974 26.7281C125.518 25.3761 125.241 23.9687 125.148 22.5425C125.012 20.6878 125.05 10.1398 125.05 2.19262C125.05 1.30852 126.104 1.3843 126.104 1.3843Z" fill="#151519"/>
<defs>
<linearGradient id="paint0_linear_1065_14917" x1="63.674" y1="3.70068" x2="112.674" y2="33.7007" gradientUnits="userSpaceOnUse">
<stop stop-color="#46C9C0"/>
<stop offset="1" stop-color="#665BF7"/>
</linearGradient>
<linearGradient id="paint1_linear_1065_14917" x1="59.1739" y1="6.20068" x2="113.174" y2="33.2007" gradientUnits="userSpaceOnUse">
<stop stop-color="#46C9C0"/>
<stop offset="1" stop-color="#665BF7"/>
</linearGradient>
</defs>
</svg>
