<svg width="226" height="129" viewBox="0 0 226 129" fill="none" xmlns="http://www.w3.org/2000/svg">
<path d="M117.792 66.1785C122.457 65.0122 130.62 62.0615 132.953 62.0615C140.096 63.1789 133.975 71.0726 133.975 71.0726C133.975 71.0726 118.458 98.2475 108.464 108.461C97.0518 120.124 79.028 127.643 64.3352 128.239C49.6424 128.836 35.225 123.977 23.6735 114.536C13.2885 106.048 7.84426 97.8525 4.34841 84.7054C3.69368 82.2412 5.32791 82.1559 7.82439 81.6372L19.2978 79.2568C21.8454 78.7286 23.9629 78.0906 25.0744 80.5347C28.6279 88.3479 30.256 92.1534 36.6777 97.4021C44.3014 103.633 53.8159 106.841 63.5129 106.447C73.2103 106.054 88.7277 101.337 95.8855 92.1344C104.049 81.6381 101.653 83.5764 108.464 73.4256C110.042 71.0726 110.995 67.8775 117.792 66.1785ZM198.682 86.2794C200.019 84.017 202.4 83.9219 205.898 82.7556C205.898 82.7556 221.06 78.1489 222.285 79.2568C224.865 81.5893 219.13 93.0714 217.939 95.2974C211.55 107.231 201.633 116.778 189.598 122.486C176.224 128.828 161.11 130.013 146.968 125.832C140.079 123.54 116.628 110.746 120.126 104.86C124.335 97.7787 124.791 96.7506 129.456 90.9194C132.372 87.2751 133.975 97.4021 152.727 104.86C162.06 107.619 172.036 106.834 180.863 102.648C188.269 99.1354 194.461 93.4212 198.682 86.2794ZM161.49 0.0496236C176.182 -0.546639 190.6 4.31179 202.151 13.7531C211.469 21.3688 218.428 31.5649 222.285 43.0757C222.378 43.2316 222.466 43.3941 222.538 43.5677C224.424 48.1067 225.515 53.8479 225.725 58.0251C225.821 59.9648 224.431 61.5723 222.552 62.0615L174.425 74.585C171.864 75.2515 169.263 73.6571 168.694 71.0726L165.966 58.6447C165.422 56.1705 166.951 53.714 169.412 53.1118L200.529 45.4993C197.857 39.8461 193.983 34.84 189.147 30.887C181.523 24.6557 172.009 21.4482 162.312 21.8417C152.615 22.2352 144.891 26.111 136.237 33.0327C130.282 37.7964 127.505 41.8162 123.479 47.8168C120.269 52.6015 120.124 52.326 115.459 58.6447C112.17 63.0993 106.129 64.1439 95.8855 66.4281C93.3002 67.0046 89.8038 64.0956 90.97 62.0615C101.595 43.53 111.795 26.7645 121.985 17.0058C132.79 6.6575 146.797 0.646148 161.49 0.0496236ZM36.2267 5.80344C49.6002 -0.538821 64.7154 -1.72599 78.8564 2.45502C90.97 6.03657 108.77 17.4161 107.295 21.8417C106.129 25.3404 99.3843 38.1692 97.0518 37.003C94.7193 35.8367 83.7435 26.3121 73.4762 23.4293C62.7232 20.4102 53.7888 21.4529 44.9622 25.6388C37.5557 29.1514 31.3662 34.8679 27.145 42.0097C19.2978 58.2643 23.0608 59.7777 19.2978 62.9781L1.16783 66.1785C-1.10511 65.0796 -0.646328 48.9343 7.88813 32.9917C14.2771 21.0579 24.192 11.511 36.2267 5.80344Z" fill="url(#paint0_linear_176_1864)" fill-opacity="0.8"/>
<defs>
<linearGradient id="paint0_linear_176_1864" x1="99.9209" y1="27.9412" x2="226.587" y2="61.0273" gradientUnits="userSpaceOnUse">
<stop stop-color="#2FC4B8"/>
<stop offset="0.766407" stop-color="#7262FD"/>
</linearGradient>
</defs>
</svg>
