<svg width="90" height="61" viewBox="0 0 90 61" fill="none" xmlns="http://www.w3.org/2000/svg">
<path d="M48.9528 34.8701C49.2586 35.6959 49.6529 36.4898 50.1315 37.2363C51.672 39.6396 53.9878 41.3945 56.6627 42.1855C59.3378 42.9765 62.1973 42.7515 64.7272 41.5518C67.0256 40.4617 68.0328 39.6922 68.9498 38.0566C69.1333 37.7297 69.4326 37.4794 69.7946 37.3818L75.2428 35.915C76.3121 35.6271 77.261 36.7214 76.7985 37.7275C75.295 40.9963 73.1859 44.4133 67.2311 47.2373C63.3979 49.0551 59.0655 49.3957 55.0123 48.1973C51.4014 47.1295 48.2237 44.9016 45.9225 41.8535C47.1607 40.0687 48.4753 37.0493 48.9528 34.8701ZM59.1744 12.1445C63.3857 11.9736 67.5188 13.3662 70.8297 16.0723C73.5144 18.2667 75.5129 21.2096 76.6149 24.5303C76.6308 24.562 76.6459 24.5948 76.6588 24.6289C77.3263 26.3977 77.4421 28.9021 76.235 29.6367C74.381 30.7645 65.3639 32.9395 65.3639 32.9395L62.8414 33.5781C61.8798 33.8214 61.0061 32.952 61.2448 31.9893L62.1862 28.1963C62.3013 27.7324 62.6591 27.3668 63.1207 27.2432L70.4186 25.291C69.6512 23.622 68.5221 22.144 67.1022 20.9834C64.917 19.1974 62.1892 18.2778 59.4098 18.3906C56.6306 18.5036 53.9811 19.6411 51.9371 21.5986C49.8931 23.5563 48.5883 26.2062 48.2574 29.0723C48.1537 29.971 48.1487 30.8725 48.2369 31.7607C48.0666 33.5654 47.2045 37.4752 45.0514 40.5957C42.7636 36.9745 41.7793 32.6301 42.276 28.3281C42.7774 23.9858 44.7543 19.971 47.8512 17.0049C50.9482 14.0388 54.9633 12.3156 59.1744 12.1445Z" fill="url(#paint0_linear_1065_14963)"/>
<path d="M17.7049 18.4366C24.8849 11.2567 36.3144 11.0451 43.2333 17.964C43.6166 18.3473 43.9767 18.7458 44.3163 19.1554C43.0602 20.9689 41.7734 24.0295 41.3241 26.1973C40.7687 24.8043 39.9335 23.504 38.8133 22.3839C34.2469 17.8175 26.7035 17.9577 21.9647 22.6964C17.226 27.4351 17.0858 34.9786 21.6522 39.545C26.2186 44.1114 33.7621 43.9712 38.5008 39.2325C41.2802 36.4531 42.4747 32.7095 42.0682 29.1671C42.191 27.5099 42.9965 23.5108 45.2147 20.337C50.0262 27.2874 49.1698 37.083 42.7606 43.4923C35.5807 50.6722 24.1511 50.8838 17.2323 43.9649C10.3135 37.0461 10.525 25.6165 17.7049 18.4366Z" fill="url(#paint1_linear_1065_14963)"/>
<defs>
<linearGradient id="paint0_linear_1065_14963" x1="21.6727" y1="15.7013" x2="70.6741" y2="45.7022" gradientUnits="userSpaceOnUse">
<stop stop-color="#46C9C0"/>
<stop offset="1" stop-color="#665BF7"/>
</linearGradient>
<linearGradient id="paint1_linear_1065_14963" x1="17.1739" y1="18.2012" x2="71.1739" y2="45.2012" gradientUnits="userSpaceOnUse">
<stop stop-color="#46C9C0"/>
<stop offset="1" stop-color="#665BF7"/>
</linearGradient>
</defs>
</svg>
