<svg preserveAspectRatio="none" width="100%" height="100%" overflow="visible" style="display: block;" viewBox="0 0 63.0013 35.7666" fill="none" xmlns="http://www.w3.org/2000/svg">
<g id="Frame 23">
<path id="Subtract" d="M35.6574 22.0449C35.9541 22.8466 36.3374 23.617 36.8019 24.3417C38.2955 26.6717 40.5405 28.3726 43.1339 29.1396C45.7276 29.9065 48.5004 29.6895 50.9533 28.5263C53.1816 27.4695 54.158 26.7233 55.047 25.1376C55.2249 24.8206 55.5153 24.5779 55.8663 24.4833L61.1486 23.0605C62.1853 22.7815 63.1047 23.8429 62.6564 24.8183C61.1987 27.9874 59.1541 31.3001 53.381 34.038C49.6645 35.8006 45.4641 36.1306 41.5343 34.9687C38.033 33.9334 34.9512 31.7739 32.7199 28.8183C33.9208 27.0863 35.1954 24.1572 35.6574 22.0449ZM45.5695 0.0136168C49.6526 -0.152056 53.6592 1.19849 56.8693 3.82221C59.4736 5.95088 61.4125 8.80565 62.4806 12.0273C62.495 12.0565 62.5088 12.0868 62.5206 12.1181C63.1678 13.833 63.2798 16.2603 62.1095 16.9726C60.3167 18.0632 51.6151 20.165 51.5704 20.1757L49.1242 20.7949C48.1917 21.0308 47.3446 20.1875 47.5763 19.2539L48.4884 15.5761C48.6002 15.1265 48.948 14.773 49.3956 14.6533L56.4708 12.7597C55.7267 11.1417 54.6327 9.70817 53.256 8.58295C51.1373 6.85133 48.4928 5.95995 45.798 6.06928C43.1032 6.17865 40.5338 7.28165 38.5519 9.17963C36.5701 11.0776 35.3054 13.6471 34.9845 16.4257C34.8842 17.2942 34.8783 18.1658 34.963 19.0244C34.8002 20.7689 33.9661 24.5667 31.8761 27.5976C29.6584 24.0869 28.7042 19.8756 29.1857 15.705C29.6719 11.4948 31.5881 7.60139 34.591 4.72553C37.5937 1.84983 41.4865 0.179401 45.5695 0.0136168Z" fill="url(#paint0_linear_0_27)"/>
<path id="Subtract_2" d="M5.35913 6.11555C12.3205 -0.845813 23.4019 -1.05166 30.1101 5.65656C30.4813 6.02774 30.8301 6.41336 31.1589 6.80988C29.9414 8.56712 28.693 11.5336 28.2566 13.6361C27.7181 12.2868 26.9091 11.0278 25.824 9.9427C21.3967 5.51538 14.0835 5.65029 9.48902 10.2445C4.89452 14.839 4.75886 22.153 9.18628 26.5804C13.6137 31.0078 20.9277 30.8721 25.5222 26.2777C28.2203 23.5794 29.3779 19.9436 28.9793 16.5052C29.1017 14.8901 29.8847 11.0251 32.03 7.95637C36.696 14.6953 35.8657 24.193 29.6511 30.4075C22.6898 37.3688 11.6083 37.5737 4.90015 30.8655C-1.80755 24.1573 -1.60192 13.0768 5.35913 6.11555Z" fill="url(#paint1_linear_0_27)"/>
</g>
<defs>
<linearGradient id="paint0_linear_0_27" x1="9.21043" y1="3.46251" x2="56.7186" y2="32.549" gradientUnits="userSpaceOnUse">
<stop stop-color="#46C9C0"/>
<stop offset="1" stop-color="#665BF7"/>
</linearGradient>
<linearGradient id="paint1_linear_0_27" x1="4.84406" y1="5.88699" x2="57.1992" y2="32.0647" gradientUnits="userSpaceOnUse">
<stop stop-color="#46C9C0"/>
<stop offset="1" stop-color="#665BF7"/>
</linearGradient>
</defs>
</svg>
